<svg version="1.0" xmlns="http://www.w3.org/2000/svg" width="346.667" height="346.667" viewBox="0 0 260 260"><path d="M87.9 5.2c-2.4 2.8-5.8 6.8-7.5 8.7-3.7 4.4-16.2 19.3-26.9 32.1-4.4 5.2-8.2 9.7-8.5 10-.3.3-2.2 2.5-4.3 4.9L37 65.4v34.9c0 19.3.2 34.8.4 34.6.2-.2.7-3.8 1.1-7.9.3-4.1.8-8.9.9-10.5.2-1.7.7-6.4 1.1-10.5.4-4.1.9-8.6 1-10 .2-1.4.6-5.9.9-10 .4-4.1 1.1-10.4 1.6-14 .5-3.6 1-7 1-7.6 0-.6 8-8.2 17.8-16.9 9.7-8.7 19.3-17.1 21.1-18.8 1.9-1.7 4.9-4.4 6.6-5.9l3.2-2.7v119.4c0 65.7.2 119.7.4 119.9.2.2 6.6-2 14.2-4.7l13.7-5.1V68.5l10.8-5.5c5.9-3 11-5.7 11.5-5.8.4-.2.7 41.8.7 93.3 0 88.9.1 93.7 1.8 93 .9-.4 7.2-2.7 14-5.2l12.2-4.6V101.4l10.9-5.7c6-3.1 11.1-5.7 11.3-5.7.3 0 .5 30.5.6 67.7 0 37.3.1 69 .1 70.4l.1 2.7 13.8-5.2 13.7-5.2.3-72.5.2-72.4h-29.2l-10.9 11L173 97.4V70.2c0-15-.3-27.2-.7-27.3-.5 0-6.9-.1-14.3-.2l-13.5-.2-11.2 10.9-11.3 11V0H92.4l-4.5 5.2z"/></svg>