<?xml version="1.0" encoding="UTF-8"?>
<svg width="26px" height="22px" viewBox="0 0 26 22" version="1.1" xmlns="http://www.w3.org/2000/svg" xmlns:xlink="http://www.w3.org/1999/xlink">
    <title>cart</title>
    <defs>
        <polygon id="path-1" points="0 0 26 0 26 22 0 22"></polygon>
    </defs>
    <g id="Symbols" stroke="none" stroke-width="1" fill="none" fill-rule="evenodd">
        <g id="Header" transform="translate(-1236.000000, -34.000000)">
            <g id="cart" transform="translate(1236.000000, 34.000000)">
                <mask id="mask-2" fill="white">
                    <use xlink:href="#path-1"></use>
                </mask>
                <g id="Clip-2"></g>
                <path d="M8.37693654,15.0002 L8.37810451,15.0002 C8.37912014,15.0002 8.38008499,15 8.38110061,15 L22.1914348,15 C22.5314157,15 22.8303653,14.77795 22.9238029,14.45605 L25.9706818,3.95605 C26.036342,3.7297 25.9903342,3.48635 25.8465215,3.29845 C25.7025057,3.11055 25.4773413,3 25.2383137,3 L6.62020772,3 L6.07573046,0.5873 C5.99813661,0.24415 5.68908153,0 5.3320381,0 L0.761719729,0 C0.340996532,0 0,0.33575 0,0.75 C0,1.16425 0.340996532,1.5 0.761719729,1.5 L4.7210881,1.5 C4.81747103,1.92755 7.32677894,13.0459 7.47120101,13.68555 C6.66169606,14.03205 6.09375783,14.82675 6.09375783,15.75 C6.09375783,16.9906 7.11893102,18 8.37891702,18 L22.1914348,18 C22.612158,18 22.9531545,17.66425 22.9531545,17.25 C22.9531545,16.83575 22.612158,16.5 22.1914348,16.5 L8.37891702,16.5 C7.95895554,16.5 7.61719729,16.1635 7.61719729,15.75 C7.61719729,15.3371 7.95778757,15.00115 8.37693654,15.0002 Z M24.2284257,4.5 L21.6167934,13.5 L8.98986702,13.5 L6.95861441,4.5 L24.2284257,4.5 Z" id="Fill-1" fill="#2A2A2A" mask="url(#mask-2)"></path>
                <path d="M8,20 C8,21.1027556 8.89724444,22 10,22 C11.1027556,22 12,21.1027556 12,20 C12,18.8972444 11.1027556,18 10,18 C8.89724444,18 8,18.8972444 8,20 Z M10,19.3333333 C10.3675556,19.3333333 10.6666667,19.6324444 10.6666667,20 C10.6666667,20.3675556 10.3675556,20.6666667 10,20.6666667 C9.63244444,20.6666667 9.33333333,20.3675556 9.33333333,20 C9.33333333,19.6324444 9.63244444,19.3333333 10,19.3333333 Z" id="Fill-3" fill="#2A2A2A" mask="url(#mask-2)"></path>
                <path d="M19,20 C19,21.1027556 19.8972444,22 21,22 C22.1027556,22 23,21.1027556 23,20 C23,18.8972444 22.1027556,18 21,18 C19.8972444,18 19,18.8972444 19,20 Z M21,19.3333333 C21.3675556,19.3333333 21.6666667,19.6324444 21.6666667,20 C21.6666667,20.3675556 21.3675556,20.6666667 21,20.6666667 C20.6324444,20.6666667 20.3333333,20.3675556 20.3333333,20 C20.3333333,19.6324444 20.6324444,19.3333333 21,19.3333333 Z" id="Fill-4" fill="#2A2A2A" mask="url(#mask-2)"></path>
            </g>
        </g>
    </g>
</svg>