<?xml version="1.0" encoding="UTF-8"?>
<svg width="23px" height="18px" viewBox="0 0 23 18" version="1.1" xmlns="http://www.w3.org/2000/svg" xmlns:xlink="http://www.w3.org/1999/xlink">
    <title>envelope</title>
    <g id="Symbols" stroke="none" stroke-width="1" fill="none" fill-rule="evenodd">
        <g id="Footer" transform="translate(-1269.000000, -198.000000)" fill="#FFFFFF" fill-rule="nonzero">
            <g id="Newsletter" transform="translate(1035.000000, 146.000000)">
                <g transform="translate(0.000000, 36.000000)" id="Newsletter-BTN">
                    <g transform="translate(220.000000, 0.000000)">
                        <g id="envelope" transform="translate(14.000000, 16.000000)">
                            <path d="M20.1921966,0 L2.81253552,0 C1.26111999,0 0,1.29690049 0,2.89233279 L0,15.1076672 C0,16.7030995 1.26111999,18 2.81253552,18 L20.1874377,18 C21.7388532,18 22.9999867,16.7030995 22.9999867,15.1076672 L22.9999867,2.89722675 C23.0047322,1.30179445 21.7436122,0 20.1921966,0 Z M21.7198175,15.1076672 C21.7198175,15.9738989 21.0345296,16.6786297 20.1921966,16.6786297 L2.81253552,16.6786297 C1.97020255,16.6786297 1.28491471,15.9738989 1.28491471,15.1076672 L1.28491471,2.89722675 C1.28491471,2.03099511 1.97020255,1.32626427 2.81253552,1.32626427 L20.1874377,1.32626427 C21.0297707,1.32626427 21.7150585,2.03099511 21.7150585,2.89722675 L21.7150585,15.1076672 L21.7198175,15.1076672 Z" id="Shape"></path>
                            <path d="M15.0526516,9.34456676 L20.7729369,4.1572438 C21.0391092,3.91255875 21.0633067,3.49659418 20.8213318,3.22254692 C20.579357,2.95339337 20.1679998,2.92892487 19.896988,3.17360992 L12.0086081,10.3330943 L10.4696482,8.94328329 C10.4648087,8.93838959 10.4599692,8.93349589 10.4599692,8.92860219 C10.4260927,8.89434628 10.3922162,8.86498407 10.3535002,8.83562187 L4.09119136,3.16871621 C3.82017953,2.92403117 3.4088223,2.94849967 3.16684746,3.22254692 C2.92487262,3.49659418 2.94907011,3.91255875 3.22008193,4.1572438 L9.00812012,9.38861007 L3.24427941,14.8450866 C2.98294658,15.0946653 2.96842809,15.5106299 3.21524243,15.7797835 C3.34590885,15.9168071 3.52013073,15.9902126 3.69435262,15.9902126 C3.85405601,15.9902126 4.01375941,15.9314882 4.13958632,15.8140394 L9.99053797,10.2792636 L11.5778929,11.713118 C11.7037198,11.8256731 11.8585837,11.8795038 12.0134476,11.8795038 C12.1683115,11.8795038 12.3280149,11.8207794 12.4490024,11.7082243 L14.0799128,10.2303266 L19.896988,15.8189331 C20.0228149,15.9412756 20.1873578,16 20.3470612,16 C20.521283,16 20.6906654,15.9314882 20.8213318,15.7944646 C21.0681462,15.5302047 21.0584672,15.1093464 20.7971344,14.8597677 L15.0526516,9.34456676 Z" id="Path"></path>
                        </g>
                    </g>
                </g>
            </g>
        </g>
    </g>
</svg>