<?xml version="1.0" encoding="UTF-8"?>
<svg width="18px" height="18px" viewBox="0 0 18 18" version="1.1" xmlns="http://www.w3.org/2000/svg" xmlns:xlink="http://www.w3.org/1999/xlink">
    <title>filter</title>
    <g id="Page-1" stroke="none" stroke-width="1" fill="none" fill-rule="evenodd">
        <g id="Category" transform="translate(-135.000000, -268.000000)" fill="#000000" fill-rule="nonzero">
            <g id="Filter" transform="translate(135.000000, 263.000000)">
                <g id="Group" transform="translate(0.000000, 1.000000)">
                    <g id="filter" transform="translate(0.000000, 4.000000)">
                        <path d="M17.3570902,0 L0.642867748,0 C0.287815812,0 0,0.287811665 0,0.642858486 L0,3.85707559 C0,4.03923201 0.0773686268,4.21283807 0.212782557,4.33472769 L6.42856448,9.92876796 L6.42856448,17.3568401 C6.42841381,17.711887 6.71607895,17.9998116 7.07113089,18 C7.17098689,18 7.26948687,17.9768349 7.35879603,17.9321998 L11.2159272,16.003662 C11.4338702,15.8947674 11.5715441,15.6719686 11.5714311,15.4283023 L11.5714311,9.92876796 L17.787213,4.33600836 C17.922966,4.21385508 18.0003346,4.03972167 18,3.85707559 L18,0.642858486 C18,0.287811665 17.7121421,0 17.3570902,0 Z M16.7142224,3.57099659 L10.4984782,9.16375619 C10.3627253,9.28590947 10.2853943,9.46004287 10.2856978,9.64268896 L10.2856978,15.0310311 L7.71426231,16.3167104 L7.71426231,9.64268896 C7.71422464,9.46053254 7.63689368,9.28692647 7.50147975,9.16507453 L1.28569783,3.57099659 L1.28569783,1.28567931 L16.7142224,1.28567931 L16.7142224,3.57099659 Z" id="Shape"></path>
                    </g>
                </g>
            </g>
        </g>
    </g>
</svg>