<?xml version="1.0" encoding="UTF-8"?>
<svg width="60px" height="60px" viewBox="0 0 60 60" version="1.1" xmlns="http://www.w3.org/2000/svg" xmlns:xlink="http://www.w3.org/1999/xlink">
    <title>kitchen</title>
    <g id="Symbols" stroke="none" stroke-width="1" fill="none" fill-rule="evenodd">
        <g id="Header" transform="translate(-171.000000, -105.000000)" fill="#2A2A2A" fill-rule="nonzero">
            <g id="Menu" transform="translate(0.000000, 90.000000)">
                <g id="Menu-Item" transform="translate(135.000000, 15.000000)">
                    <g id="kitchen" transform="translate(36.000000, 0.000000)">
                        <path d="M57.2424316,26.3031006 L46.8484498,26.3031006 L46.8484498,16.7880248 L55.3637695,16.7880248 C56.8840027,16.7880248 58.1213379,15.5511475 58.1213379,14.0304565 L58.1213379,2.75756836 C58.1213379,1.23733523 56.8840027,0 55.3637695,0 L36.5757751,0 C35.0550843,0 33.8182068,1.23733523 33.8182068,2.75756836 L33.8182068,7.51510617 L28.0609131,7.51510617 L28.0609131,4.63623047 C28.0609131,2.08007812 25.980835,0 23.4242249,0 L4.63623047,0 C2.08007812,0 0,2.08007812 0,4.63623047 L0,57.2424316 C0,58.7626648 1.23733523,60 2.75756836,60 L25.302887,60 C26.8235779,60 28.0604554,58.7626648 28.0604554,57.2424316 L28.0604554,44.0304565 L31.9390869,44.0304565 L31.9390869,57.2424316 C31.9390869,58.7631225 33.1764221,60 34.6966553,60 L57.2424316,60 C58.7626648,60 60,58.7626648 60,57.2424316 L60,29.0606689 C60,27.539978 58.7626648,26.3031006 57.2424316,26.3031006 Z M58.2421875,29.0606689 L58.2421875,33.8182068 L50.4176331,33.8182068 C50.5389404,33.507843 50.6062317,33.170929 50.6062317,32.8184509 C50.6062317,31.29776 49.3688965,30.0604248 47.8486634,30.0604248 C46.3279724,30.0604248 45.0906373,31.29776 45.0906373,32.8184509 C45.0906373,33.170929 45.1579284,33.507843 45.2792358,33.8182068 L43.0911255,33.8182068 L43.0911255,30.9393311 C43.0911255,30.4541016 42.6974487,30.0604248 42.2122193,30.0604248 L36.5757751,30.0604248 C36.0905456,30.0604248 35.6968689,30.4541016 35.6968689,30.9393311 L35.6968689,33.8182068 L33.6973571,33.8182068 L33.6973571,29.0606689 C33.6973571,28.5090637 34.1459655,28.0609131 34.697113,28.0609131 L57.2424316,28.0609131 C57.7935791,28.0609131 58.2421875,28.5090637 58.2421875,29.0606689 L58.2421875,29.0606689 Z M46.8484498,32.8179932 C46.8484498,32.2668457 47.297058,31.8182373 47.8482056,31.8182373 C48.3998108,31.8182373 48.8484192,32.2668457 48.8484192,32.8179932 C48.8484192,33.3695984 48.3998108,33.817749 47.8482056,33.817749 C47.297058,33.817749 46.8484498,33.3695984 46.8484498,32.8179932 Z M37.4546814,33.8182068 L37.4546814,31.8182373 L41.333313,31.8182373 L41.333313,33.8182068 L37.4546814,33.8182068 Z M55.3637695,15.0302123 L52.4848938,15.0302123 L52.4848938,7.39425656 L56.3635254,7.39425656 L56.3635254,14.0304565 C56.3635254,14.5816041 55.914917,15.0302123 55.3637695,15.0302123 Z M56.3635254,2.75756836 L56.3635254,5.63644406 L52.4848938,5.63644406 L52.4848938,1.7578125 L55.3633118,1.7578125 C55.914917,1.7578125 56.3635254,2.2064209 56.3635254,2.75756836 Z M35.5760193,2.75756836 C35.5760193,2.2064209 36.0246277,1.7578125 36.5757751,1.7578125 L50.7270813,1.7578125 L50.7270813,15.0302123 L36.5757751,15.0302123 C36.0241699,15.0302123 35.5760193,14.5816041 35.5760193,14.0304565 L35.5760193,2.75756836 Z M1.7578125,39.3333435 L3.69689941,39.3333435 C3.73031613,39.3333435 3.75732422,39.3603516 3.75732422,39.3937683 L3.75732422,45.9695435 C3.75732422,46.0029602 3.73031613,46.0299682 3.69689941,46.0299682 L1.7578125,46.0299682 L1.7578125,39.3333435 Z M1.7578125,23.3638001 L3.69689941,23.3638001 C3.73031613,23.3638001 3.75732422,23.390808 3.75732422,23.4242249 L3.75732422,30 C3.75732422,30.0334167 3.73031613,30.0604248 3.69689941,30.0604248 L1.7578125,30.0604248 L1.7578125,23.3638001 Z M26.3031006,57.2424316 C26.3031006,57.7935791 25.8544922,58.2421875 25.3033447,58.2421875 L2.75756836,58.2421875 C2.2064209,58.2421875 1.7578125,57.7935791 1.7578125,57.2424316 L1.7578125,47.7877807 L3.69689941,47.7877807 C4.69985965,47.7877807 5.51513672,46.9725036 5.51513672,45.9695435 L5.51513672,39.3937683 C5.51513672,38.3912659 4.69985965,37.575531 3.69689941,37.575531 L1.7578125,37.575531 L1.7578125,35.5760193 L21.5455628,35.5760193 C22.0307923,35.5760193 22.424469,35.1823425 22.424469,34.697113 C22.424469,34.2118835 22.0307923,33.8182068 21.5455628,33.8182068 L1.7578125,33.8182068 L1.7578125,31.818695 L3.69689941,31.818695 C4.69985965,31.818695 5.51513672,31.0029602 5.51513672,30.0004577 L5.51513672,23.4246826 C5.51513672,22.4217224 4.69985965,21.6059876 3.69689941,21.6059876 L1.7578125,21.6059876 L1.7578125,4.63623047 C1.7578125,3.04916379 3.04916379,1.7578125 4.63623047,1.7578125 L23.4242249,1.7578125 C25.0117493,1.7578125 26.3026429,3.04916379 26.3026429,4.63623047 L26.3026429,33.817749 L25.3033447,33.817749 C24.8181152,33.817749 24.4244385,34.2114258 24.4244385,34.6966553 C24.4244385,35.1823425 24.8181152,35.5755615 25.3033447,35.5755615 L26.3026429,35.5755615 L26.3026429,57.2424316 L26.3031006,57.2424316 Z M28.0609131,42.272644 L28.0609131,9.27291867 L33.8182068,9.27291867 L33.8182068,14.0304565 C33.8182068,15.5511475 35.0550843,16.7880248 36.5757751,16.7880248 L45.0906373,16.7880248 L45.0906373,26.3031006 L34.697113,26.3031006 C33.1764221,26.3031006 31.9395446,27.539978 31.9395446,29.0606689 L31.9395446,42.272644 L28.0609131,42.272644 Z M57.2424316,58.2421875 L34.697113,58.2421875 C34.1455078,58.2421875 33.6973571,57.7935791 33.6973571,57.2424316 L33.6973571,35.5760193 L58.2421875,35.5760193 L58.2421875,57.2424316 C58.2421875,57.7935791 57.7935791,58.2421875 57.2424316,58.2421875 Z" id="Shape"></path>
                        <path d="M16.0328111,8 L11.9671887,8 C10.8825606,8 10,8.88745026 10,9.97808765 L10,12.0219124 C10,13.1130478 10.8825606,14 11.9671887,14 L16.0328111,14 C17.1174394,14 18,13.1130478 18,12.0219124 L18,9.97808765 C18,8.88745026 17.1174394,8 16.0328111,8 Z M16.0981861,12.0219124 C16.0981861,12.058267 16.0689655,12.0876494 16.0328111,12.0876494 L11.9671887,12.0876494 C11.9310345,12.0876494 11.9018139,12.058267 11.9018139,12.0219124 L11.9018139,9.97808765 C11.9018139,9.9417331 11.9310345,9.9123506 11.9671887,9.9123506 L16.0328111,9.9123506 C16.0689655,9.9123506 16.0981861,9.9417331 16.0981861,9.97808765 L16.0981861,12.0219124 Z" id="Shape"></path>
                        <path d="M51.9603842,32 L55.0396158,32 C55.5703281,32 56,31.5520833 56,31 C56,30.4479167 55.5703281,30 55.0396158,30 L51.9603842,30 C51.4301721,30 51,30.4479167 51,31 C51,31.5520833 51.4301721,32 51.9603842,32 Z" id="Path"></path>
                        <path d="M46,39 C41.5888096,39 38,42.5888096 38,47 C38,51.4111904 41.5888096,55 46,55 C50.4111904,55 54,51.4111904 54,47 C54,42.5888096 50.4111904,39 46,39 L46,39 Z M46.0000001,53.3246987 C42.5124066,53.3246987 39.6753013,50.4875934 39.6753013,46.9999999 C39.6753013,43.5124066 42.5128429,40.6753013 46.0000001,40.6753013 C49.4875934,40.6753013 52.3246987,43.5128429 52.3246987,46.9999999 C52.3246987,50.4875934 49.4875934,53.3246987 46.0000001,53.3246987 L46.0000001,53.3246987 Z" id="Shape"></path>
                        <path d="M49.6873673,44.0675816 C49.180382,44.1984006 48.8753024,44.7147653 49.0061213,45.2217505 C49.071284,45.4745026 49.104359,45.7361406 49.104359,45.9997531 C49.104359,47.711754 47.7117539,49.104359 45.9997532,49.104359 C44.288246,49.104359 42.895641,47.711754 42.895641,45.9997531 C42.895641,44.2882461 44.288246,42.895641 45.9997532,42.895641 C46.2633657,42.895641 46.5250037,42.9282224 46.7767685,42.993385 C47.2837538,43.1237104 47.8006122,42.8186307 47.9309375,42.3116454 C48.0617564,41.8051538 47.7566766,41.2882954 47.2496914,41.1574765 C46.8434121,41.0528213 46.4228168,41 45.9997532,41 C43.2426815,41 41,43.2426816 41,45.9997531 C41,48.7568248 43.2426815,51 45.9997532,51 C48.7568248,51 51,48.7568248 51,45.9997531 C51,45.5766895 50.9466851,45.1556006 50.8420299,44.7488276 C50.711211,44.2418423 50.1938589,43.9372563 49.6873673,44.0675816 L49.6873673,44.0675816 Z" id="Path"></path>
                        <path d="M38.9457352,14 L49.0542648,14 C49.5763895,14 50,13.5759491 50,13.0521795 L50,4.94782051 C50,4.4245446 49.5763895,4 49.0542648,4 L47.0327559,4 C46.5106313,4 46.0870208,4.4245446 46.0870208,4.94782051 C46.0870208,5.47159004 46.5106313,5.89564102 47.0327559,5.89564102 L48.1085297,5.89564102 L48.1085297,12.104359 L39.8914703,12.104359 L39.8914703,5.89564102 L42.9892456,5.89564102 C43.5113701,5.89564102 43.9349808,5.47159004 43.9349808,4.94782051 C43.9349808,4.4245446 43.5113701,4 42.9892456,4 L38.9457352,4 C38.4236105,4 38,4.4245446 38,4.94782051 L38,13.0521795 C38,13.5759491 38.4236105,14 38.9457352,14 L38.9457352,14 Z" id="Path"></path>
                    </g>
                </g>
            </g>
        </g>
    </g>
</svg>