<?xml version="1.0" encoding="UTF-8"?>
<svg width="40px" height="46px" viewBox="0 0 40 46" version="1.1" xmlns="http://www.w3.org/2000/svg" xmlns:xlink="http://www.w3.org/1999/xlink">
    <title>location</title>
    <g id="Page-1" stroke="none" stroke-width="1" fill="none" fill-rule="evenodd">
        <g id="Order-Summery" transform="translate(-1308.000000, -283.000000)" fill="#FF0000" fill-rule="nonzero">
            <g id="location" transform="translate(1308.000000, 283.000000)">
                <polygon id="Path" points="23.4506442 23 24 19 16 19 16.5494447 23"></polygon>
                <path d="M34.1422228,5.7134854 C30.3647234,2.02909331 25.3422449,0 20,0 C14.6578472,0 9.63536868,2.02909331 5.85786933,5.7134854 C2.08036997,9.39787748 0,14.2964728 0,19.5070428 C0,22.5993839 1.04221174,25.9088134 3.09752368,29.3432303 C4.69865866,32.0186468 6.92062498,34.7850857 9.70179091,37.5656318 C14.3990677,42.2619648 19.0274349,45.3541262 19.2221874,45.4834267 L20,46 L20.7778126,45.4834267 C20.972473,45.3541262 25.6009323,42.2618749 30.2982091,37.5656318 C33.079375,34.7850857 35.3014335,32.0186468 36.9024763,29.3432303 C38.9578804,25.9087235 40,22.5993839 40,19.5070428 C40,14.2964728 37.9197222,9.39778763 34.1422228,5.7134854 Z M19.9964992,33.676102 C11.884604,33.676102 5.28503519,27.2391984 5.28503519,19.3272441 C5.28503519,11.4152897 11.884604,4.9783861 19.9964992,4.9783861 C28.1083944,4.9783861 34.7079633,11.4152897 34.7079633,19.3272441 C34.7079633,27.2391984 28.1084866,33.676102 19.9964992,33.676102 L19.9964992,33.676102 Z" id="Shape"></path>
                <path d="M20,8 C13.3832061,8 8,13.1589059 8,19.5 C8,25.8410941 13.3832061,31 20,31 C26.6167939,31 32,25.8410941 32,19.5 C32,13.1589059 26.6168864,8 20,8 Z M28.5174185,18.738565 L26.9638677,18.738565 L26.0385843,25.7083507 L13.9615082,25.7083507 L13.0362248,18.738565 L11.4826741,18.738565 L11.4826741,16.0783754 L15.8406662,16.0783754 L15.8406662,15.0549117 C15.8406662,12.8545802 17.7086283,11.0644498 20.0046264,11.0644498 C22.3006246,11.0644498 24.1685866,12.8545802 24.1685866,15.0549117 L24.1685866,16.0783754 L28.5174185,16.0783754 L28.5174185,18.738565 Z" id="Shape"></path>
                <path d="M20.5,13 C19.6729103,13 19,13.7606239 19,14.6955244 L19,16 L22,16 L22,14.6955244 C22,13.7606239 21.3270897,13 20.5,13 Z" id="Path"></path>
            </g>
        </g>
    </g>
</svg>