<?xml version="1.0" encoding="UTF-8"?>
<svg width="19px" height="20px" viewBox="0 0 19 20" version="1.1" xmlns="http://www.w3.org/2000/svg" xmlns:xlink="http://www.w3.org/1999/xlink">
    <title>search</title>
    <g id="Symbols" stroke="none" stroke-width="1" fill="none" fill-rule="evenodd">
        <g id="Header" transform="translate(-1047.000000, -35.000000)" fill="#FFFFFF">
            <g id="Search" transform="translate(725.000000, 20.000000)">
                <g id="Search-BTN" transform="translate(306.000000, 0.000000)">
                    <g id="search" transform="translate(16.000000, 15.000000)">
                        <path d="M18.7104316,18.2156493 L14.0276417,13.2667749 C15.2320221,11.8111204 15.8918619,9.9802519 15.8918619,8.07434063 C15.8918619,3.62224075 12.3275178,0 7.94485139,0 C3.56434413,0 0,3.62224075 0,8.07434063 C0,12.5277571 3.56434413,16.1499978 7.94485139,16.1499978 C9.58970077,16.1499978 11.1585477,15.6462018 12.4976597,14.6877606 L17.2175872,19.6761311 C17.4149346,19.885461 17.6796478,20 17.965089,20 C18.2332569,20 18.4876061,19.8955545 18.6819307,19.7055339 C19.0951942,19.3026726 19.1068537,18.6356256 18.7104316,18.2156493 Z M7.99889702,2 C11.3078422,2 14,4.6921578 14,7.99933821 C14,11.3082834 11.3078422,14 7.99889702,14 C4.69171661,14 2,11.3082834 2,7.99933821 C2,4.6921578 4.69171661,2 7.99889702,2 Z" id="Fill-1"></path>
                    </g>
                </g>
            </g>
        </g>
    </g>
</svg>