<?xml version="1.0" encoding="UTF-8"?>
<svg width="62px" height="62px" viewBox="0 0 62 62" version="1.1" xmlns="http://www.w3.org/2000/svg" xmlns:xlink="http://www.w3.org/1999/xlink">
    <title>support</title>
    <g id="Symbols" stroke="none" stroke-width="1" fill="none" fill-rule="evenodd">
        <g id="Header" transform="translate(-1240.000000, -104.000000)" fill="#2A2A2A" fill-rule="nonzero" stroke="#F4F4F4">
            <g id="Menu" transform="translate(0.000000, 90.000000)">
                <g id="Menu-Item" transform="translate(1239.000000, 15.000000)">
                    <g id="support" transform="translate(2.000000, 0.000000)">
                        <path d="M55.3125,27.19875 L55.3125,25.3125 C55.3125,18.55125 52.6795312,12.1947656 47.8986328,7.41386719 C43.1177344,2.63296875 36.76125,0 30,0 C23.23875,0 16.8822656,2.63296875 12.1013672,7.41386719 C7.32046875,12.1947656 4.6875,18.55125 4.6875,25.3125 L4.6875,27.19875 C1.98550781,27.9660937 0,30.4538672 0,33.3984375 L0,42.7734375 C0,46.3273828 2.89136719,49.21875 6.4453125,49.21875 L13.4765625,49.21875 C14.4473437,49.21875 15.234375,48.4317188 15.234375,47.4609375 L15.234375,25.3125 C15.234375,17.1706641 21.8581641,10.546875 30,10.546875 C38.1418359,10.546875 44.765625,17.1706641 44.765625,25.3125 L44.765625,47.4609375 C44.765625,48.4317188 45.5526562,49.21875 46.5234375,49.21875 L49.453125,49.21875 L49.453125,51.2109375 C49.453125,52.1801953 48.6645703,52.96875 47.6953125,52.96875 L36.1429688,52.96875 C35.4173438,50.9227734 33.4634766,49.453125 31.171875,49.453125 L28.828125,49.453125 C25.9203516,49.453125 23.5546875,51.8187891 23.5546875,54.7265625 C23.5546875,57.6343359 25.9203516,60 28.828125,60 L31.171875,60 C33.4634766,60 35.4173438,58.5303516 36.1429688,56.484375 L47.6953125,56.484375 C50.6030859,56.484375 52.96875,54.1187109 52.96875,51.2109375 L52.96875,49.21875 L53.5546875,49.21875 C57.1086328,49.21875 60,46.3273828 60,42.7734375 L60,33.3984375 C60,30.4538672 58.0144922,27.9660937 55.3125,27.19875 Z M31.171875,56.484375 L28.828125,56.484375 C27.8588672,56.484375 27.0703125,55.6958203 27.0703125,54.7265625 C27.0703125,53.7573047 27.8588672,52.96875 28.828125,52.96875 L31.171875,52.96875 C32.1411328,52.96875 32.9296875,53.7573047 32.9296875,54.7265625 C32.9296875,55.6958203 32.1411328,56.484375 31.171875,56.484375 Z M11.71875,45.703125 L6.4453125,45.703125 C4.82988281,45.703125 3.515625,44.3888672 3.515625,42.7734375 L3.515625,33.3984375 C3.515625,31.7830078 4.82988281,30.46875 6.4453125,30.46875 L11.71875,30.46875 L11.71875,45.703125 Z M30,7.03125 C19.9196484,7.03125 11.71875,15.2321484 11.71875,25.3125 L11.71875,26.953125 L8.203125,26.953125 L8.203125,25.3125 C8.203125,13.2936328 17.9811328,3.515625 30,3.515625 C42.0188672,3.515625 51.796875,13.2936328 51.796875,25.3125 L51.796875,26.953125 L48.28125,26.953125 L48.28125,25.3125 C48.28125,15.2321484 40.0803516,7.03125 30,7.03125 Z M56.484375,42.7734375 C56.484375,44.3888672 55.1701172,45.703125 53.5546875,45.703125 L48.28125,45.703125 L48.28125,30.46875 L53.5546875,30.46875 C55.1701172,30.46875 56.484375,31.7830078 56.484375,33.3984375 L56.484375,42.7734375 Z" id="Shape"></path>
                        <path d="M33.5196526,42.600145 C33.8379579,42.86361 34.2329158,43 34.6318105,43 C34.8816842,43 35.1331789,42.94641 35.3682316,42.83716 C35.9785579,42.553225 36.3684211,41.9443 36.3684211,41.275 L36.3684211,37.25 L36.9473684,37.25 C39.1819895,37.25 41,35.444385 41,33.225 L41,24.025 C41,21.805615 39.1819895,20 36.9473684,20 L23.0526316,20 C20.8180105,20 19,21.805615 19,24.025 L19,33.225 C19,35.444385 20.8180105,37.25 23.0526316,37.25 L27.0553579,37.25 L33.5196526,42.600145 Z M22.4736842,33.225 L22.4736842,24.025 C22.4736842,23.707945 22.7334,23.45 23.0526316,23.45 L36.9473684,23.45 C37.2666,23.45 37.5263158,23.707945 37.5263158,24.025 L37.5263158,33.225 C37.5263158,33.542055 37.2666,33.8 36.9473684,33.8 L34.6315789,33.8 C33.6723789,33.8 32.8947368,34.57234 32.8947368,35.525 L32.8947368,37.592125 L28.7961368,34.199855 C28.4839684,33.94145 28.0905158,33.8 27.6842105,33.8 L23.0526316,33.8 C22.7334,33.8 22.4736842,33.542055 22.4736842,33.225 L22.4736842,33.225 Z" id="Shape"></path>
                        <path d="M33.2857143,31 C34.2324571,31 35,30.1045333 35,29 C35,27.8954667 34.2324571,27 33.2857143,27 L28.7142857,27 C27.7675429,27 27,27.8954667 27,29 C27,30.1045333 27.7675429,31 28.7142857,31 L33.2857143,31 Z" id="Path"></path>
                    </g>
                </g>
            </g>
        </g>
    </g>
</svg>