<?xml version="1.0" encoding="UTF-8"?>
<svg width="20px" height="20px" viewBox="0 0 20 20" version="1.1" xmlns="http://www.w3.org/2000/svg" xmlns:xlink="http://www.w3.org/1999/xlink">
    <title>user</title>
    <g id="Symbols" stroke="none" stroke-width="1" fill="none" fill-rule="evenodd">
        <g id="Header" transform="translate(-1111.000000, -35.000000)" fill="#2A2A2A">
            <g id="Login" transform="translate(1111.000000, 35.000000)">
                <path d="M6,6.00252242 C6,3.79550654 7.794375,2 10,2 C12.205625,2 14,3.79550654 14,6.00252242 C14,8.14157881 12.314375,9.89409993 10.2024583,10 C10.1350833,9.99870752 10.0675833,9.99808212 10,9.99808212 C9.93275,9.99808212 9.8655,9.99874921 9.79833333,10 C7.68604167,9.89455855 6,8.14187066 6,6.00252242 Z M19.9493075,17.1375781 C19.8613777,16.7151953 19.4477444,16.4440625 19.0252048,16.5319922 C18.6027824,16.6199219 18.3316492,17.0336719 18.4196181,17.4560547 C18.4702822,17.699375 18.4099305,17.94875 18.2541491,18.1403906 C18.1639146,18.2513672 17.9627034,18.4375 17.6291873,18.4375 L2.37080832,18.4375 C2.03729226,18.4375 1.83608107,18.2513281 1.74584658,18.1403906 C1.59002606,17.9487891 1.52971349,17.699375 1.58037761,17.4560547 C2.39115991,13.5617188 5.82612527,10.7169531 9.79288819,10.6210156 C9.86159922,10.6236719 9.93062274,10.625 10,10.625 C10.0696073,10.625 10.1389043,10.6236328 10.2078887,10.6209766 C13.0021111,10.6880078 15.5847707,12.1032813 17.1487961,14.4358203 C17.3890699,14.7942187 17.8743439,14.8899219 18.2327819,14.6496484 C18.5911417,14.409375 18.686884,13.9240625 18.4465712,13.5657031 C17.1646555,11.6538281 15.3032078,10.2635938 13.1807832,9.56503906 C14.4741442,8.59515625 15.3125047,7.04988281 15.3125047,5.3125 C15.3125047,2.38320312 12.9293375,0 10,0 C7.07065812,0 4.68749099,2.38320312 4.68749099,5.3125 C4.68749099,7.0509375 5.52686707,8.59703125 6.8215953,9.56683594 C5.63534377,9.95738281 4.5222564,10.5650781 3.5480364,11.3664063 C1.76162785,12.8358203 0.519555934,14.8853906 0.0506881431,17.1375781 C-0.0962651712,17.8433203 0.0797897431,18.5681641 0.533618453,19.1262109 C0.985220597,19.6815234 1.6548699,20 2.37080832,20 L17.6291483,20 C18.3451258,20 19.0147751,19.6815234 19.4663382,19.1262109 C19.920245,18.5681641 20.0962608,17.8433203 19.9493075,17.1375781 L19.9493075,17.1375781 Z" id="user"></path>
            </g>
        </g>
    </g>
</svg>