<?xml version="1.0" encoding="UTF-8"?>
<svg width="35px" height="35px" viewBox="0 0 35 35" version="1.1" xmlns="http://www.w3.org/2000/svg" xmlns:xlink="http://www.w3.org/1999/xlink">
    <title>view</title>
    <g id="Page-1" stroke="none" stroke-width="1" fill="none" fill-rule="evenodd">
        <g id="Homepage" transform="translate(-1129.000000, -1377.000000)" fill="#FFFFFF" fill-rule="nonzero">
            <g id="Refrigerator" transform="translate(0.000000, 944.000000)">
                <g id="Section-Image" transform="translate(638.000000, 60.000000)">
                    <g id="Check-out" transform="translate(460.000000, 341.000000)">
                        <g id="view" transform="translate(31.000000, 32.000000)">
                            <path d="M34.7664269,17.3198389 C31.5853449,13.3651319 24.850466,8.75 17.5,8.75 C10.1231811,8.75 3.38802767,13.396504 0.233573071,17.3198389 C-0.0778576905,17.7071584 -0.0778576905,18.2649938 0.233573071,18.6523133 C3.49007649,22.7026772 10.2407397,27.2222222 17.5,27.2222222 C25.0172304,27.2222222 31.7234231,22.435384 34.7664269,18.6523834 C35.0778577,18.2649938 35.0778577,17.7071584 34.7664269,17.3198389 Z M24.4926432,17.9860761 C24.4926432,21.9204752 21.3557571,25.1214111 17.4999314,25.1214111 C13.644037,25.1214111 10.5072196,21.9202651 10.5072196,17.9860761 C10.5072196,14.051677 13.6441056,10.8507411 17.4999314,10.8507411 C21.3561003,10.8507411 24.4926432,14.0520972 24.4926432,17.9860761 Z M2.41997075,17.9863562 C3.57860573,16.7575918 6.37228652,14.1057379 10.2939945,12.4037307 C7.8328817,15.7035448 7.83192092,20.2658763 10.2928279,23.5668809 C7.31103959,22.277333 4.54110384,20.2399663 2.41997075,17.9863562 Z M24.7060055,23.5684215 C27.1671183,20.2685374 27.1680105,15.7062759 24.7071721,12.4052713 C27.6888232,13.6948192 30.4588275,15.7322559 32.5800293,17.985726 C31.4213943,19.2146304 28.6277135,21.8663443 24.7060055,23.5684215 Z" id="Shape"></path>
                            <path d="M13.6111111,17.8888889 C13.6111111,20.033268 15.3556209,21.7777778 17.5,21.7777778 C19.6443028,21.7777778 21.3888889,20.033268 21.3888889,17.8888889 C21.3888889,15.7445098 19.6443028,14 17.5,14 C15.3556209,14 13.6111111,15.7445098 13.6111111,17.8888889 Z M19.1013072,17.8888889 C19.1013072,18.7718954 18.3829303,19.4901961 17.5,19.4901961 C16.6169935,19.4901961 15.8986928,18.7718954 15.8986928,17.8888889 C15.8986928,17.0058824 16.6169935,16.2875817 17.5,16.2875817 C18.3829303,16.2875817 19.1013072,17.0058824 19.1013072,17.8888889 Z" id="Shape"></path>
                            <path d="M17.9861111,4.86111111 C18.2545741,4.86111111 18.4722222,4.35884615 18.4722222,3.73931624 L18.4722222,1.12179487 C18.4722222,0.502264957 18.2545741,0 17.9861111,0 C17.7176481,0 17.5,0.502264957 17.5,1.12179487 L17.5,3.73931624 C17.5,4.35884615 17.7176481,4.86111111 17.9861111,4.86111111 Z" id="Path"></path>
                            <path d="M23.7752558,5.68582964 C24.1950681,5.99257738 24.7299319,5.80555249 24.9696078,5.26713618 L26.1348321,2.64983469 C26.3743913,2.1117175 26.2281692,1.42673231 25.808065,1.11976023 C25.3879024,0.812862937 24.8533305,1.00018694 24.613713,1.53845369 L23.4484887,4.15575519 C23.2089295,4.6937976 23.35521,5.37885757 23.7752558,5.68582964 Z" id="Path"></path>
                            <path d="M10.0303852,5.26718227 C10.2699454,5.80530691 10.8046363,5.9927083 11.2247423,5.68580675 C11.6447899,5.3789052 11.7910711,4.69383573 11.5515108,4.15571108 L10.3862815,1.53837329 C10.1467213,1.00024864 9.6119136,0.812847255 9.19192437,1.11974881 C8.77187677,1.42665036 8.6255956,2.11171983 8.86515583,2.64984448 L10.0303852,5.26718227 Z" id="Path"></path>
                            <path d="M17.9861111,30.1388889 C17.7176481,30.1388889 17.5,30.6411538 17.5,31.2606838 L17.5,33.8782051 C17.5,34.497735 17.7176481,35 17.9861111,35 C18.2545741,35 18.4722222,34.497735 18.4722222,33.8782051 L18.4722222,31.2606838 C18.4722222,30.6411538 18.2545741,30.1388889 17.9861111,30.1388889 Z" id="Path"></path>
                            <path d="M11.2247203,29.3141615 C10.8046764,29.0073316 10.2699902,29.1946601 10.0303738,29.7327903 L8.8651548,32.3501546 C8.62559671,32.8882847 8.77187658,33.5733611 9.19192044,33.8802658 C9.61202268,34.1871704 10.1467089,33.9996924 10.386267,33.461637 L11.5514859,30.8442727 C11.7911024,30.3061426 11.6447642,29.6210662 11.2247203,29.3141615 L11.2247203,29.3141615 Z" id="Path"></path>
                            <path d="M24.9696148,29.732825 C24.7300546,29.1946241 24.1951886,29.0073718 23.7752577,29.3141246 C23.3552101,29.621027 23.2089289,30.3060983 23.4484892,30.8442243 L24.6137185,33.4615691 C24.8532203,33.9996951 25.3879113,34.1871718 25.8080756,33.8802694 C26.2281232,33.5733671 26.3744044,32.8882958 26.1348442,32.3501697 L24.9696148,29.732825 Z" id="Path"></path>
                        </g>
                    </g>
                </g>
            </g>
        </g>
    </g>
</svg>