<?xml version="1.0" encoding="UTF-8"?>
<svg width="164px" height="168px" viewBox="0 0 164 168" version="1.1" xmlns="http://www.w3.org/2000/svg" xmlns:xlink="http://www.w3.org/1999/xlink">
    <title>win</title>
    <g id="Page-1" stroke="none" stroke-width="1" fill="none" fill-rule="evenodd">
        <g id="Order-Summery" transform="translate(-136.000000, -557.000000)" fill-rule="nonzero">
            <g id="win" transform="translate(136.000000, 557.000000)">
                <path d="M98.3077701,49 L94,45.7443102 L108.537573,27.2901029 C110.690801,24.8480044 111.229765,21.3206759 109.883669,18.3353002 C108.268091,13.7214172 103.153189,11.5509573 98.5759373,13.1794645 L96.9616742,13.7214172 L95.0766139,8.56558152 L96.6921918,8.02230424 C103.960321,5.0382531 112.306379,8.83722017 114.998571,16.1635157 C116.883631,21.0490373 116.075184,26.4765116 112.845343,30.5471173 L98.3077701,49 Z" id="Path" fill="#E8821C"></path>
                <path d="M52.4579826,67 L31.3404614,64.5252685 C23.2181344,63.7008054 17.2612323,56 18.0742582,47.75 C18.6149534,41.9760739 22.4064306,37.3005369 27.5503064,35.1010739 L29.9867402,34 L31.8824788,39.2260739 L29.4447228,40.3258054 C24.5718555,42.25 22.1354217,48.0252685 24.0298381,52.9760739 C25.3835593,56.2752685 28.3620105,58.75 31.8824788,59.0252685 L53,61.5 L52.4579826,67 Z" id="Path" fill="#E8821C"></path>
                <path d="M72.5273772,70.7583294 L61.9195815,69.6698953 C49.6795104,68.582788 39.0717144,60.699602 34.4471561,49.0108772 L27.3761779,31.0689637 C26.2871087,28.3505322 27.6471166,25.0878836 30.3671324,24.0007764 L30.6393999,24.0007764 L88.0319986,3.34043139 C90.7520144,2.25332417 94.0165648,3.88464847 95.1043052,6.60308 L101.087543,24.5449935 C104.624361,35.4187196 102.447551,47.3795529 94.8320381,56.0777376 L87.4874641,64.5051407 L116.592164,140.621223 L127.472228,140.621223 C129.647709,140.621223 131.824518,141.980439 132.367725,144.155981 L134,148.233628 L94.0165648,164 L92.3842895,159.922353 C91.5674878,157.748138 92.1120223,155.572597 93.7442974,153.941273 L101.632078,146.330195 L72.5273772,70.7583294 Z" id="Path" fill="#F4A422"></path>
                <path d="M84.0800255,52 L80.2722676,48.1820323 C92.2400766,36.1821347 80,16.2719732 80,15.9989759 L84.623232,13 C85.1677668,14.0906577 99.0401191,36.9997952 84.0800255,52 Z" id="Path" fill="#EDC17C"></path>
                <path d="M132.367375,143.585588 C131.551728,141.379279 129.646777,140 127.470831,140 L116.588439,140 L101.625151,146.069368 L93.7356828,153.792794 C92.1030585,155.448198 91.5584074,157.654507 92.3753839,159.862162 L94.0080085,164 L134,147.999551 L132.367375,143.585588 Z" id="Path" fill="#E8821C"></path>
                <path d="M126.732667,111.044487 L111.287821,69.5899367 C110.204181,66.8805409 107.223178,65.2559614 104.242176,66.3394552 L103.970936,66.3394552 L74.1635595,79.3440263 C72.5374378,80.1576386 71.4537981,81.5123365 70.9126397,83.136916 L68.7440366,93.9744994 L1,121.068458 L1,159 L79.5830825,126.48725 L99.6350524,128.926764 C100.720016,128.926764 101.803656,128.926764 102.616055,128.384356 L124.022906,117.817976 C126.46275,116.463279 127.546389,113.753883 126.732667,111.044487 L126.732667,111.044487 Z" id="Path" fill="#EFCCBF"></path>
                <polygon id="Path" fill="#676B7F" points="69.1428571 94 42 104.931611 52.8571429 138 80 126.794832"></polygon>
                <g id="Group" transform="translate(1.000000, 12.000000)" fill="#F4C167">
                    <path d="M135.719051,0.33799811 L135.719051,3.06327284 C135.719051,12.0574776 128.400094,19.4149212 119.452938,19.4149212 C128.400094,19.4149212 135.719051,26.7736951 135.719051,35.7665695 L135.719051,38.4918443 L135.719051,35.7665695 C135.719051,26.7736951 143.03933,19.4149212 151.985163,19.4149212 C143.03933,19.4149212 135.719051,12.0574776 135.719051,3.06327284 L135.719051,0.33799811 Z" id="Path"></path>
                    <path d="M16.4342273,54.8434926 L16.4342273,57.5687673 C16.4342273,66.5629721 9.11527109,73.9204157 0.168115015,73.9204157 C9.11527109,73.9204157 16.4342273,81.2791896 16.4342273,90.272064 L16.4342273,92.9973388 L16.4342273,90.272064 C16.4342273,81.2791896 23.7545071,73.9204157 32.7003395,73.9204157 C23.7545071,73.9204157 16.4342273,66.5629721 16.4342273,57.5687673 L16.4342273,54.8434926 Z" id="Path"></path>
                    <path d="M146.563125,54.8434926 L146.563125,57.5687673 C146.563125,66.5629721 139.244169,73.9204157 130.297013,73.9204157 C139.244169,73.9204157 146.563125,81.2791896 146.563125,90.272064 L146.563125,92.9973388 L146.563125,90.272064 C146.563125,81.2791896 153.883405,73.9204157 162.829238,73.9204157 C153.883405,73.9204157 146.563125,66.5629721 146.563125,57.5687673 L146.563125,54.8434926 Z" id="Path"></path>
                </g>
                <polygon id="Path" fill="#4A4A56" points="53 137.670264 1 159 1 121.2 42.0526316 105"></polygon>
                <polygon id="Path" fill="#4A4A56" points="58.0215066 124 63 122.386885 54.9784937 99 50 100.882186"></polygon>
                <polygon id="Path" fill="#D8B4AD" points="114.060998 75 98 80.2627523 99.6618092 85 116 79.9993578"></polygon>
                <polygon id="Path" fill="#D8B4AD" points="119.140078 89 104 94.1346003 105.594034 99 121 93.8640805"></polygon>
                <polygon id="Path" fill="#D8B4AD" points="124.081358 103 109 108.1346 110.645507 113 126 108.1346"></polygon>
                <path d="M98.3077701,49 L94,45.7443102 L108.537573,27.2901029 C110.690801,24.8480044 111.229765,21.3206759 109.883669,18.3353002 C108.268091,13.7214172 103.153189,11.5509573 98.5759373,13.1794645 L96.9616742,13.7214172 L95.0766139,8.56558152 L96.6921918,8.02230424 C103.960321,5.0382531 112.306379,8.83722017 114.998571,16.1635157 C116.883631,21.0490373 116.075184,26.4765116 112.845343,30.5471173 L98.3077701,49 Z" id="Path" fill="#E8821C"></path>
                <path d="M52.4579826,67 L31.3404614,64.5252685 C23.2181344,63.7008054 17.2612323,56 18.0742582,47.75 C18.6149534,41.9760739 22.4064306,37.3005369 27.5503064,35.1010739 L29.9867402,34 L31.8824788,39.2260739 L29.4447228,40.3258054 C24.5718555,42.25 22.1354217,48.0252685 24.0298381,52.9760739 C25.3835593,56.2752685 28.3620105,58.75 31.8824788,59.0252685 L53,61.5 L52.4579826,67 Z" id="Path" fill="#E8821C"></path>
                <path d="M72.5273772,70.7583294 L61.9195815,69.6698953 C49.6795104,68.582788 39.0717144,60.699602 34.4471561,49.0108772 L27.3761779,31.0689637 C26.2871087,28.3505322 27.6471166,25.0878836 30.3671324,24.0007764 L30.6393999,24.0007764 L88.0319986,3.34043139 C90.7520144,2.25332417 94.0165648,3.88464847 95.1043052,6.60308 L101.087543,24.5449935 C104.624361,35.4187196 102.447551,47.3795529 94.8320381,56.0777376 L87.4874641,64.5051407 L116.592164,140.621223 L127.472228,140.621223 C129.647709,140.621223 131.824518,141.980439 132.367725,144.155981 L134,148.233628 L94.0165648,164 L92.3842895,159.922353 C91.5674878,157.748138 92.1120223,155.572597 93.7442974,153.941273 L101.632078,146.330195 L72.5273772,70.7583294 Z" id="Path" fill="#F4A422"></path>
                <path d="M84.0800255,52 L80.2722676,48.1820323 C92.2400766,36.1821347 80,16.2719732 80,15.9989759 L84.623232,13 C85.1677668,14.0906577 99.0401191,36.9997952 84.0800255,52 Z" id="Path" fill="#EDC17C"></path>
                <path d="M132.367375,143.585588 C131.551728,141.379279 129.646777,140 127.470831,140 L116.588439,140 L101.625151,146.069368 L93.7356828,153.792794 C92.1030585,155.448198 91.5584074,157.654507 92.3753839,159.862162 L94.0080085,164 L134,147.999551 L132.367375,143.585588 Z" id="Path" fill="#E8821C"></path>
                <path d="M126.732667,111.044487 L111.287821,69.5899367 C110.204181,66.8805409 107.223178,65.2559614 104.242176,66.3394552 L103.970936,66.3394552 L74.1635595,79.3440263 C72.5374378,80.1576386 71.4537981,81.5123365 70.9126397,83.136916 L68.7440366,93.9744994 L1,121.068458 L1,159 L79.5830825,126.48725 L99.6350524,128.926764 C100.720016,128.926764 101.803656,128.926764 102.616055,128.384356 L124.022906,117.817976 C126.46275,116.463279 127.546389,113.753883 126.732667,111.044487 L126.732667,111.044487 Z" id="Path" fill="#EFCCBF"></path>
                <polygon id="Path" fill="#676B7F" points="69.1428571 94 42 104.931611 52.8571429 138 80 126.794832"></polygon>
                <path d="M136.5,12 L136.5,14.7142857 C136.5,23.6722235 129.075806,31 120,31 C129.075806,31 136.5,38.3291014 136.5,47.2857143 L136.5,50 L136.5,47.2857143 C136.5,38.3291014 143.925537,31 153,31 C143.925537,31 136.5,23.6722235 136.5,14.7142857 L136.5,12 Z" id="Path" fill="#FF0000"></path>
                <path d="M17.5,67 L17.5,69.7142857 C17.5,78.6722235 10.0758058,86 1,86 C10.0758058,86 17.5,93.3291014 17.5,102.285714 L17.5,105 L17.5,102.285714 C17.5,93.3291014 24.9255369,86 34,86 C24.9255369,86 17.5,78.6722235 17.5,69.7142857 L17.5,67 Z" id="Path" fill="#FF0000"></path>
                <path d="M147.5,67 L147.5,69.7142857 C147.5,78.6722235 140.075806,86 131,86 C140.075806,86 147.5,93.3291014 147.5,102.285714 L147.5,105 L147.5,102.285714 C147.5,93.3291014 154.925537,86 164,86 C154.925537,86 147.5,78.6722235 147.5,69.7142857 L147.5,67 Z" id="Path" fill="#F4C167"></path>
                <polygon id="Path" fill="#4A4A56" points="53 137.670264 1 159 1 121.2 42.0526316 105"></polygon>
                <polygon id="Path" fill="#4A4A56" points="58.0215066 124 63 122.386885 54.9784937 99 50 100.882186"></polygon>
                <polygon id="Path" fill="#D8B4AD" points="114.060998 75 98 80.2627523 99.6618092 85 116 79.9993578"></polygon>
                <polygon id="Path" fill="#D8B4AD" points="119.140078 89 104 94.1346003 105.594034 99 121 93.8640805"></polygon>
                <polygon id="Path" fill="#D8B4AD" points="124.081358 103 109 108.1346 110.645507 113 126 108.1346"></polygon>
                <path d="M133.75,47.2857143 L133.75,50 L139.25,50 L139.25,47.2857143 C139.25,39.6862443 145.300537,33.7142857 153,33.7142857 L153,28.2857143 C145.300537,28.2857143 139.25,22.3150807 139.25,14.7142857 L139.25,12 L133.75,12 L133.75,14.7142857 C133.75,22.3150807 127.700806,28.2857143 120,28.2857143 L120,33.7142857 C127.700806,33.7142857 133.75,39.6862443 133.75,47.2857143 Z M136.5,24.4859793 C138.150268,27.200265 140.349731,29.3724885 143.099731,31 C140.349731,32.6288364 138.150268,34.8010599 136.5,37.5153456 C134.849731,34.8010599 132.650268,32.6288364 129.900268,31 C132.650268,29.3724885 134.849731,27.200265 136.5,24.4859793 L136.5,24.4859793 Z" id="Shape"></path>
                <path d="M14.75,102.285714 L14.75,105 L20.25,105 L20.25,102.285714 C20.25,94.6862443 26.3005369,88.7142857 34,88.7142857 L34,83.2857143 C26.3005369,83.2857143 20.25,77.3150807 20.25,69.7142857 L20.25,67 L14.75,67 L14.75,69.7142857 C14.75,77.3150807 8.70080575,83.2857143 1,83.2857143 L1,88.7142857 C8.70080575,88.7142857 14.75,94.6862443 14.75,102.285714 Z M17.5,79.4859793 C19.1502685,82.200265 21.3497312,84.3724885 24.0997312,86 C21.3497312,87.6288364 19.1502685,89.8010599 17.5,92.5153456 C15.8497312,89.8010599 13.6502685,87.6288364 10.9002685,86 C13.6502685,84.3724885 15.8497312,82.200265 17.5,79.4859793 Z" id="Shape"></path>
                <path d="M127.677656,138.320802 L118.713586,138.320802 L113.823007,126.611593 L125.775544,120.62204 C129.579769,118.715487 131.208635,114.358603 129.850362,110.546828 L114.366847,68.8871947 C112.736654,64.5303104 108.117995,62.6237581 103.772583,63.9852014 C103.772583,63.9852014 103.500663,63.9852014 103.500663,64.2577559 L92.0906402,69.1597492 L90.7323672,65.3466447 L96.9812187,57.9956484 C101.326631,53.0936551 104.043176,47.1041021 104.858936,40.5694402 L112.736654,31.0393372 C117.897826,25.0484551 116.811473,16.0634611 110.834541,10.8889133 C109.748188,10.072579 108.661835,9.25624465 107.575482,8.71113569 C104.587016,7.3496924 101.598551,7.07713793 98.3394916,7.89480136 L97.5237319,5.44314016 C96.165459,1.08758494 91.2762068,-1.09152178 87.201388,0.54247598 L29.8820047,21.2366797 C25.5352661,22.8706775 23.3625598,27.4987872 24.9927528,31.5831171 L24.9927528,31.8556715 L26.3510258,35.3948924 C19.287741,38.662888 16.0273555,46.8315477 18.4719812,53.9113186 C20.3740941,59.3570917 25.2633459,63.1688671 30.9683578,63.9852014 L43.7366539,65.3466447 C48.8978259,69.1597492 55.1453506,71.6100813 61.3942021,72.1538611 L70.3582731,72.9715245 L71.9884658,77.0558544 C70.086353,78.1447432 68.72808,80.0512955 68.1855668,82.5016275 L66.2834543,91.7591761 L0,118.715487 L1.90211286,123.888706 L39.9337552,108.641604 L49.1697456,136.41425 L0,156.835899 L2.17270596,161.737893 L80.1381035,129.334479 L93.7208329,130.968477 L98.6100847,145.944353 L92.0906402,152.20779 C89.6460141,154.385567 88.831581,157.924788 90.189854,161.192784 L92.9063999,168 L138,150.301237 L135.555374,143.766575 C133.925181,140.226025 130.938042,138.320802 127.677656,138.320802 L127.677656,138.320802 Z M113.008574,138.864582 L103.228743,142.132578 L99.6977646,131.78614 C101.326631,132.057366 102.684904,131.78614 104.043176,130.968477 L108.661835,128.790699 L113.008574,138.864582 Z M105.67337,68.6146402 C107.031643,68.0695313 108.661835,68.6146402 109.205675,69.9760835 L111.378381,75.6944111 L98.0675715,80.0512955 L99.6977646,85.2245141 L113.008574,80.8676298 L116.267633,89.5813984 L103.500663,93.9369537 L105.130856,99.1115014 L118.169746,94.7546171 L121.430132,103.467057 L108.933755,107.551387 L110.563948,112.725934 L123.330918,108.36905 L124.689191,111.908271 C125.23303,113.269714 124.689191,114.631157 123.330918,115.176266 L101.870471,125.795258 C101.326631,126.067813 100.784117,126.067813 100.240278,126.067813 L81.7682962,123.888706 L71.7165461,93.6657283 L73.6186586,83.5905163 C73.8905787,82.774182 74.4330919,81.9565186 75.2488516,81.6839641 L105.67337,68.6146402 Z M105.401449,13.6117999 C109.748188,15.5183521 111.922221,20.6915708 110.020108,25.3210096 C109.748188,26.1373439 109.205675,26.6824529 108.661835,27.4987872 L105.401449,31.5831171 C105.130856,28.8602305 104.587016,26.4098984 103.772583,23.6870118 L100.240278,13.06802 C102.14239,12.7954655 103.772583,13.06802 105.401449,13.6117999 Z M23.905073,52.5498753 C22.276207,47.9204365 24.1769931,43.0197723 28.5237317,40.8406656 L32.3266308,50.0995432 C33.6849037,53.3662096 35.5870162,56.6342051 37.7597225,59.3570917 L32.0547106,58.8119827 C28.251812,58.5394283 24.9927528,56.0890962 23.905073,52.5498753 Z M62.4805553,66.9806425 C51.3424519,65.8917536 41.5626212,58.8119827 37.4878024,48.1929909 L30.4258446,30.2216738 C29.8820047,28.8602305 30.4258446,27.2262327 31.7841176,26.6824529 L89.1021741,5.98824912 C89.9179339,5.71569464 90.4604471,5.71569464 91.2762068,5.98824912 C91.81872,6.2608036 92.3625599,6.80458345 92.6344797,7.62224688 L98.6100847,25.5935641 C101.870471,35.6674469 99.6977646,46.5589932 92.9063999,54.4550984 L84.4848421,64.2577559 L86.9294682,70.7924178 L77.1496378,74.8767477 L74.4330919,68.0695313 L62.4805553,66.9806425 Z M45.0949268,106.462498 L51.3424519,104.012166 L58.1338166,124.706369 L63.2949883,123.072372 L56.2330305,101.834388 L67.099214,97.4775037 L76.3352045,124.978924 L54.3309176,134.236472 L45.0949268,106.462498 Z M95.8935388,160.920229 L95.0791058,159.286231 C94.807186,158.197343 95.0791058,157.108454 95.6229457,156.292119 L104.858936,147.578351 L116.539553,143.766575 L127.405737,143.766575 C128.492089,143.766575 129.579769,144.58291 129.850362,145.400573 L130.394202,147.033242 L95.8935388,160.920229 Z" id="Shape"></path>
                <path d="M150.25,69.7142857 L150.25,67 L144.75,67 L144.75,69.7142857 C144.75,77.3150807 138.700806,83.2857143 131,83.2857143 L131,88.7142857 C138.700806,88.7142857 144.75,94.6862443 144.75,102.285714 L144.75,105 L150.25,105 L150.25,102.285714 C150.25,94.6862443 156.300537,88.7142857 164,88.7142857 L164,83.2857143 C156.300537,83.2857143 150.25,77.3150807 150.25,69.7142857 Z M147.5,92.5153456 C145.849731,89.8010599 143.650268,87.6288364 140.900268,86 C143.650268,84.3724885 145.849731,82.200265 147.5,79.4859793 C149.150268,82.200265 151.349731,84.3724885 154.099731,86 C151.349731,87.6288364 149.150268,89.8010599 147.5,92.5153456 L147.5,92.5153456 Z" id="Shape"></path>
                <path d="M80.5319182,48.1552506 L84.251452,52 C98.8649265,36.8945739 85.3139907,13.8247367 84.5174112,13 L80,16.0213533 C80.2659589,16.0213533 92.2224381,36.0711778 80.5319182,48.1552506 Z" id="Path" fill="#AE6F08"></path>
            </g>
        </g>
    </g>
</svg>